      <svg
        id="text-cipher"
        data-name="Text 1"
        xmlns="http://www.w3.org/2000/svg"
        viewBox="0 0 603.38 147.4"
      >
        <defs>
          <style>
            .text-cls-1 {
              fill: #fff;
            }
          </style>
        </defs>
        <path class="text-cls-1" d="M570.9.06,495.8,147.4H488L563.1.06Z" />
        <path class="text-cls-1" d="M603.38.06,528.28,147.4h-7.79L595.59.06Z" />
        <path
          class="text-cls-1"
          d="M58.2,109.63q-7.61,4.45-18.37,4.46a37.87,37.87,0,0,1-15.77-3.3,41,41,0,0,1-12.66-8.85A40.12,40.12,0,0,1,3,89,40.88,40.88,0,0,1,0,73.35V73A40.9,40.9,0,0,1,3,57.35,42.07,42.07,0,0,1,11.4,44.28a39.6,39.6,0,0,1,12.66-9A37.87,37.87,0,0,1,39.83,32,40.39,40.39,0,0,1,49.9,33.16a38.86,38.86,0,0,1,8.38,3.22,40.73,40.73,0,0,1,7,4.67,67.76,67.76,0,0,1,5.92,5.54l-5.38,5.53a60.34,60.34,0,0,0-11.22-9.07,27.66,27.66,0,0,0-14.92-3.84,30.16,30.16,0,0,0-12.53,2.6,30.93,30.93,0,0,0-10,7.12,33.5,33.5,0,0,0-6.69,10.64A34.77,34.77,0,0,0,8,72.73V73a34.64,34.64,0,0,0,2.53,13.24,34.25,34.25,0,0,0,6.92,10.79,31.86,31.86,0,0,0,10.23,7.19,30.52,30.52,0,0,0,12.61,2.61,29.15,29.15,0,0,0,14.83-3.77,46,46,0,0,0,11.46-9.3l5.23,4.61A55.84,55.84,0,0,1,58.2,109.63Z"
        />
        <path class="text-cls-1" d="M96.78,136.85v-103h7.53v103Z" />
        <path
          class="text-cls-1"
          d="M203.93,90.18a40.5,40.5,0,0,1-8.69,12.92A38.32,38.32,0,0,1,183,111.25a36.7,36.7,0,0,1-24.68,1.3,33.78,33.78,0,0,1-8.84-4.15,40,40,0,0,1-7.07-6,55.39,55.39,0,0,1-5.62-7.08v41.52h-7.53v-103h7.53V51.36A55.12,55.12,0,0,1,142.5,44a39,39,0,0,1,7.15-6.15,36.17,36.17,0,0,1,8.77-4.23A33.52,33.52,0,0,1,169.1,32,36.92,36.92,0,0,1,183,34.75a37.55,37.55,0,0,1,12.22,8,39.54,39.54,0,0,1,8.69,12.83,42.72,42.72,0,0,1,3.31,17.15V73A42.67,42.67,0,0,1,203.93,90.18ZM199.24,73a38.25,38.25,0,0,0-2.46-14,32,32,0,0,0-6.71-10.68,30,30,0,0,0-21.66-9.15,30.18,30.18,0,0,0-11.94,2.46,32.27,32.27,0,0,0-10.25,6.92,34.24,34.24,0,0,0-7.17,10.61,33.67,33.67,0,0,0-2.7,13.68v.31A34.23,34.23,0,0,0,139.05,87a33.1,33.1,0,0,0,7.17,10.61,32.71,32.71,0,0,0,10.25,6.84,30,30,0,0,0,11.94,2.47,31.53,31.53,0,0,0,12.1-2.31A28.39,28.39,0,0,0,190.3,98a30.88,30.88,0,0,0,6.55-10.54,39.07,39.07,0,0,0,2.39-14.06Z"
        />
        <path
          class="text-cls-1"
          d="M286.87,112.25V65.66q0-12.15-6.46-19.46T262,38.9A27.3,27.3,0,0,0,251.2,41a26.68,26.68,0,0,0-8.61,5.76,26.31,26.31,0,0,0-5.77,8.84,30.11,30.11,0,0,0-2.07,11.31v45.36h-7.54V0h7.54V48.44a36.45,36.45,0,0,1,10.76-11.69Q252.28,32,263,32a34.69,34.69,0,0,1,13.22,2.39,27.57,27.57,0,0,1,16.07,16.91,38.89,38.89,0,0,1,2.08,13v48Z"
        />
        <path
          class="text-cls-1"
          d="M325.62,89.12a33.93,33.93,0,0,0,6.93,9.64,28.69,28.69,0,0,0,9.49,6,30.51,30.51,0,0,0,11.17,2.07q9.26,0,15.65-3.54a46.1,46.1,0,0,0,11.33-8.77l5.23,4.62a54.51,54.51,0,0,1-13.63,10.68q-7.62,4.23-18.88,4.23a37.9,37.9,0,0,1-14.72-2.92,37.45,37.45,0,0,1-12.33-8.3A39.55,39.55,0,0,1,317.46,90a44,44,0,0,1-3.08-16.76v-.31A44.2,44.2,0,0,1,317.23,57a40.74,40.74,0,0,1,7.84-13,37.34,37.34,0,0,1,11.76-8.77A33.86,33.86,0,0,1,351.59,32a34.27,34.27,0,0,1,14.92,3.15,33.8,33.8,0,0,1,11.3,8.69,39.63,39.63,0,0,1,7.23,13A50.06,50.06,0,0,1,387.57,73v1.69a9.47,9.47,0,0,1-.15,1.38h-65A34.23,34.23,0,0,0,325.62,89.12Zm54-19.77a44.84,44.84,0,0,0-2.39-11.46,32,32,0,0,0-5.4-9.69,25.77,25.77,0,0,0-8.56-6.76,28,28,0,0,0-22.81-.23,27.46,27.46,0,0,0-8.87,6.38,34.49,34.49,0,0,0-6.24,9.69,36.06,36.06,0,0,0-2.93,12.07Z"
        />
        <path
          class="text-cls-1"
          d="M451.56,40.9a33.59,33.59,0,0,0-12.92,2.54A30.91,30.91,0,0,0,427.8,51a36.67,36.67,0,0,0-7.45,12.3,47.23,47.23,0,0,0-2.77,16.84v32.14H410V33.83h7.54V56.12a43.92,43.92,0,0,1,5.84-9.68,38.67,38.67,0,0,1,8-7.62,33.65,33.65,0,0,1,9.76-4.76,34.86,34.86,0,0,1,11.15-1.46v8.3Z"
        />
      </svg>